<?xml version="1.0" encoding="UTF-8"?>
<svg version="1.1" xmlns="http://www.w3.org/2000/svg" width="976" height="800">
<path d="M0 0 C322.08 0 644.16 0 976 0 C976 264 976 528 976 800 C653.92 800 331.84 800 0 800 C0 536 0 272 0 0 Z " fill="#494949" transform="translate(0,0)"/>
<path d="M0 0 C28.13001546 -0.11702943 56.25999419 -0.20508417 84.39020443 -0.25906086 C97.45284625 -0.28479423 110.51533641 -0.31985158 123.57788086 -0.37719727 C134.96902545 -0.42718134 146.36006015 -0.45932635 157.75131136 -0.47044247 C163.77763866 -0.47693582 169.80365171 -0.4920952 175.82987785 -0.52865028 C181.51391932 -0.56284698 187.19752016 -0.57300547 192.88165474 -0.56553841 C194.95634997 -0.56690243 197.03106153 -0.57669244 199.10566711 -0.59602737 C219.47260504 -0.77636827 236.60542126 2.63136778 251.97265625 16.9453125 C267.05648457 32.23258359 269.45565902 50.4995967 269.41992188 70.94262695 C269.42727305 72.93974275 269.43586231 74.93685431 269.44558716 76.93395996 C269.46770136 82.32875058 269.47073891 87.72338799 269.46883965 93.11821771 C269.46871948 97.63574633 269.47730247 102.15324304 269.48561716 106.67076272 C269.50481492 117.33611307 269.50774828 128.00138516 269.50097656 138.66674805 C269.49433839 149.63790594 269.51719971 160.60872742 269.55429029 171.57981712 C269.58506389 181.02821792 269.59633903 190.47651092 269.59245348 199.92496079 C269.59039392 205.55529983 269.59574239 211.18537693 269.62034607 216.81566811 C269.6427375 222.11416216 269.64063281 227.41211207 269.62041855 232.71060944 C269.61703036 234.64422981 269.62200189 236.57788772 269.63640213 238.51145744 C269.76835294 257.55768545 265.77385956 273.41101414 252.37890625 287.64453125 C242.38383321 297.54113067 230.00725846 303.31912898 216 305 C216.70125 305.10957031 217.4025 305.21914063 218.125 305.33203125 C224.05714746 306.32340915 229.51916878 307.50170947 235 310 C236.02480469 310.45439453 236.02480469 310.45439453 237.0703125 310.91796875 C248.50373191 316.59369846 256.93293337 325.95758079 263 337 C263.5775 337.94875 264.155 338.8975 264.75 339.875 C269.49334148 351.73335371 269.44191531 363.50011285 269.41992188 376.05615234 C269.42727464 378.05341564 269.43586435 380.0506747 269.44558716 382.04792786 C269.46768301 387.43852723 269.4707399 392.82897321 269.46883965 398.21961164 C269.46871941 402.73470511 269.47730504 407.24976669 269.48561716 411.76485121 C269.50480774 422.42398523 269.50775068 433.08304095 269.50097656 443.7421875 C269.49433663 454.70598181 269.51720846 465.66943963 269.55429029 476.63316572 C269.58506317 486.07734044 269.59633917 495.52140732 269.59245348 504.96563113 C269.59039411 510.59260187 269.59573966 516.21931052 269.62034607 521.84623337 C269.64273679 527.14063694 269.64063341 532.43449594 269.62041855 537.72890282 C269.61703041 539.66091148 269.62200168 541.59295772 269.63640213 543.5249157 C269.76844383 562.56795238 265.76771255 578.41868041 252.375 592.6484375 C236.50332571 608.36348343 219.32356714 610.31046663 198.13818359 610.22705078 C196.12688197 610.22648601 194.11557994 610.22680451 192.10427856 610.22793579 C186.66699113 610.22850773 181.22979261 610.21677909 175.79252577 610.20278788 C170.10172957 610.19025407 164.41093116 610.18910793 158.72012329 610.18673706 C147.95398268 610.18053007 137.18788287 610.16412983 126.4217602 610.14403808 C114.16058228 610.12165475 101.89940238 610.11067953 89.6382091 610.10064721 C64.42545015 610.07976292 39.21272737 610.04460214 14 610 C14.00130151 608.74691123 14.00260303 607.49382245 14.00394398 606.20276129 C14.06071039 550.97953547 14.10633298 495.75630902 14.09507751 440.53305054 C14.09491029 439.69704701 14.09474307 438.86104348 14.09457078 437.99970651 C14.09086972 419.83126511 14.08516815 401.66282485 14.07740569 383.49438474 C14.07361119 374.58463554 14.07025876 365.67488619 14.06713867 356.76513672 C14.06666166 355.43519326 14.06666166 355.43519326 14.066175 354.07838227 C14.05607384 325.33816161 14.075167 296.59805043 14.10939364 267.85785125 C14.1444107 238.32449299 14.14998695 208.79127208 14.11849881 179.25790627 C14.11406547 175.08689928 14.10996882 170.91589202 14.10607719 166.74488449 C14.10530085 165.92396734 14.10452451 165.10305018 14.10372464 164.25725675 C14.09209164 151.0406379 14.11151031 137.82423815 14.14253096 124.60765818 C14.17305211 111.32171345 14.1708839 98.03609289 14.13534261 84.75015779 C14.11521769 76.85569751 14.12016219 68.96217975 14.16101597 61.06779456 C14.18875906 55.17335288 14.16958497 49.27967103 14.13215785 43.38526218 C14.12434147 41.00017373 14.13177064 38.61497699 14.15590347 36.22999783 C14.82301294 22.04566885 14.82301294 22.04566885 8.67998409 9.89043236 C7.13993978 8.56999108 5.58207304 7.26978209 4 6 C2.49198912 4.06180331 1.27239525 2.10221824 0 0 Z " fill="#FEFEFE" transform="translate(504,97)"/>
<path d="M0 0 C51.15 0 102.3 0 155 0 C161.44444444 48.33333333 161.44444444 48.33333333 164.0703125 71.93359375 C165.07858245 80.85987373 166.2821461 89.75616481 167.50048828 98.65600586 C168.80100383 108.25731935 169.92468066 117.87155839 171 127.5 C172.19369678 138.1850738 173.47584064 148.84742658 174.9375 159.5 C176.75415857 172.75007324 178.30172167 186.02376677 179.82147217 199.31054688 C181.26527743 211.91422745 182.82619801 224.48983108 184.55078125 237.05859375 C185.93767894 247.27018724 187.10655134 257.50003393 188.25027466 267.7409668 C189.38106336 277.84531137 190.62092733 287.92583716 192 298 C193.45781362 308.65330789 194.74675368 319.31447786 195.9375 330 C197.31995257 342.39491279 198.84967006 354.76291768 200.5 367.125 C203.26185884 387.8455648 205.77510234 408.59197608 208.21972656 429.35209656 C208.97878627 435.79735284 209.7391143 442.24245904 210.5 448.6875 C210.65368042 449.98996674 210.80736084 451.29243347 210.96569824 452.6343689 C212.72701839 467.5427854 214.52827469 482.43824168 216.58203125 497.30932617 C218.17239496 508.95585186 219.48657616 520.633119 220.82128906 532.31109619 C221.98471989 542.47933038 223.17495521 552.63879338 224.56494141 562.77880859 C226.71965286 578.53807134 228.35873365 594.13442527 230 610 C203.27 610 176.54 610 149 610 C145.55106989 588.15677598 145.55106989 588.15677598 144.71875 580.90625 C144.61999069 580.07300201 144.52123138 579.23975403 144.41947937 578.3812561 C144.10920858 575.75459774 143.80433639 573.12735191 143.5 570.5 C143.28446991 568.66127108 143.06872852 566.82256692 142.8527832 564.98388672 C142.22881046 559.65665453 141.61317265 554.3284847 141 549 C140.86824371 547.85803162 140.86824371 547.85803162 140.73382568 546.69299316 C140.21232978 542.17100327 139.69710208 537.64834917 139.1875 533.125 C139.06375 532.03380859 138.94 530.94261719 138.8125 529.81835938 C138.70292969 528.82900391 138.59335937 527.83964844 138.48046875 526.8203125 C138.38660889 525.97742676 138.29274902 525.13454102 138.19604492 524.26611328 C138.01593224 522.18416323 138 520.08972644 138 518 C96.09 518 54.18 518 11 518 C20.27432095 525.80619353 20.27432095 525.80619353 30 533 C32.10961865 543.84087797 28.6103059 556.85610193 27.125 567.625 C26.58274991 571.6167602 26.04509219 575.60913075 25.5078125 579.6015625 C25.37683167 580.56539856 25.24585083 581.52923462 25.11090088 582.52227783 C24.16229118 589.56979752 23.3381619 596.62500726 22.6399231 603.70181274 C22.10531959 608.89468041 22.10531959 608.89468041 21 610 C18.50507612 610.09502416 16.03793986 610.12557566 13.54272461 610.11352539 C12.76229294 610.11367142 11.98186127 610.11381744 11.17778015 610.1139679 C8.5859402 610.11326858 5.99417122 610.10547536 3.40234375 610.09765625 C1.6101536 610.09579213 -0.18203706 610.0943682 -1.97422791 610.09336853 C-6.70070797 610.08954284 -11.42715752 610.07971212 -16.15362549 610.06866455 C-20.9728555 610.05845153 -25.79209042 610.05387115 -30.61132812 610.04882812 C-40.07423219 610.03808989 -49.53711356 610.02101286 -59 610 C-58.32253719 602.03976534 -57.46194744 594.11162065 -56.51171875 586.1796875 C-56.36865295 584.97532547 -56.22558716 583.77096344 -56.07818604 582.53010559 C-55.61621263 578.64487929 -55.15198747 574.75992648 -54.6875 570.875 C-54.44640586 568.8539864 -54.20548963 566.83295164 -53.9645853 564.8119154 C-53.25578702 558.86581586 -52.54549435 552.91989687 -51.83398438 546.97412109 C-51.2565762 542.14862697 -50.68138671 537.32287964 -50.1089325 532.49679565 C-48.07442929 515.35820532 -45.86038161 498.24677141 -43.60623169 481.13598633 C-41.92204053 468.3310351 -40.31538071 455.52222316 -38.875 442.6875 C-38.79538025 441.97842499 -38.7157605 441.26934998 -38.63372803 440.53878784 C-38.31860521 437.72960475 -38.00385606 434.92038007 -37.68960571 432.11109924 C-36.86958236 424.79908872 -36.00773165 417.49219933 -35.125 410.1875 C-35.04554138 409.52952423 -34.96608276 408.87154846 -34.88421631 408.19363403 C-33.22406331 394.49706041 -31.40923887 380.82103106 -29.60705566 367.14257812 C-27.92259601 354.33542903 -26.31562762 341.52442334 -24.875 328.6875 C-24.79538025 327.97842499 -24.7157605 327.26934998 -24.63372803 326.53878784 C-24.31860521 323.72960475 -24.00385606 320.92038007 -23.68960571 318.11109924 C-22.86958236 310.79908872 -22.00773165 303.49219933 -21.125 296.1875 C-21.04554138 295.52952423 -20.96608276 294.87154846 -20.88421631 294.19363403 C-19.22406331 280.49706041 -17.40923887 266.82103106 -15.60705566 253.14257812 C-13.92259601 240.33542903 -12.31562762 227.52442334 -10.875 214.6875 C-10.79538025 213.97842499 -10.7157605 213.26934998 -10.63372803 212.53878784 C-10.31860521 209.72960475 -10.00385606 206.92038007 -9.68960571 204.11109924 C-8.86958236 196.79908872 -8.00773165 189.49219933 -7.125 182.1875 C-7.04554138 181.52952423 -6.96608276 180.87154846 -6.88421631 180.19363403 C-5.22418549 166.49806844 -3.41090305 152.82281408 -1.60705566 139.14559937 C0.18192183 125.56011545 1.8489349 111.96830954 3.36425781 98.34973145 C4.46070362 88.50822792 5.66726801 78.6878132 7 68.875 C8.38510622 58.64041212 9.75280178 48.40428522 11.03344727 38.15606689 C11.21772704 36.69097821 11.4048466 35.22624359 11.5949707 33.76190186 C11.85874012 31.72626197 12.11225945 29.68958953 12.36328125 27.65234375 C12.58431519 25.90425415 12.58431519 25.90425415 12.80981445 24.12084961 C13.043525 20.2857765 12.94966255 17.42325356 10.78491211 14.17895508 C10.03866577 13.35754028 10.03866577 13.35754028 9.27734375 12.51953125 C8.73916016 11.91302734 8.20097656 11.30652344 7.64648438 10.68164062 C7.08251953 10.06482422 6.51855469 9.44800781 5.9375 8.8125 C4.81735855 7.57284289 3.7012489 6.32952682 2.58984375 5.08203125 C2.09347412 4.53780518 1.59710449 3.9935791 1.08569336 3.43286133 C0 2 0 2 0 0 Z " fill="#FEFEFE" transform="translate(260,97)"/>
<path d="M0 0 C38.61 0 77.22 0 117 0 C117 55.11 117 110.22 117 167 C85.98 167 54.96 167 23 167 C23.12503906 156.39488281 23.25007812 145.78976562 23.37890625 134.86328125 C23.42017981 128.13202848 23.45712463 121.40120899 23.47460938 114.66992188 C23.50314553 103.99233831 23.54899691 93.31690256 23.7097168 82.64038086 C23.82671537 74.86282635 23.88316139 67.08752137 23.86853737 59.30906075 C23.862872 55.19357162 23.88639909 51.08315618 23.98260689 46.96868324 C25.21458362 28.85591573 25.21458362 28.85591573 18.26461792 13.19442749 C14.829652 10.28805888 11.19948039 8.06658415 7.0983572 6.22360516 C5 5 5 5 0 0 Z " fill="#535353" transform="translate(576,189)"/>
<path d="M0 0 C38.94 0 77.88 0 118 0 C118 55.11 118 110.22 118 167 C86.98 167 55.96 167 24 167 C24 117.5 24 68 24 17 C22.35 16.34 20.7 15.68 19 15 C16.79617466 13.41677629 14.67508113 11.82000661 12.5625 10.125 C9.30700628 7.54054444 6.0775986 5.00866512 2.58984375 2.7421875 C1.73519531 2.16726563 0.88054688 1.59234375 0 1 C0 0.67 0 0.34 0 0 Z " fill="#4E4E4E" transform="translate(575,448)"/>
<path d="M0 0 C0.33 0 0.66 0 1 0 C3.48295399 16.53421634 5.50930264 33.11663951 7.48828125 49.71679688 C8.21513107 55.80898229 8.95427861 61.89967427 9.69360352 67.99035645 C9.93983749 70.0192603 10.18577343 72.0482001 10.43164062 74.07714844 C12.39811273 90.30125963 14.37910416 106.52360258 16.35888672 122.74609375 C17.30258934 130.47918757 18.24552408 138.21237504 19.18850708 145.94555664 C19.70897235 150.21370837 20.2294888 154.48185387 20.75 158.75 C20.95833358 160.4583333 21.16666691 162.16666664 21.375 163.875 C21.478125 164.720625 21.58125 165.56625 21.6875 166.4375 C27.625 215.12499999 27.625 215.12499999 27.93748474 217.68740845 C28.14585818 219.39604827 28.35424238 221.10468678 28.56263733 222.81332397 C29.0829452 227.07945736 29.60306716 231.34561326 30.12280273 235.61181641 C31.17277342 244.22870374 32.22604847 252.8451682 33.28515625 261.4609375 C35.24878115 277.44732538 37.1964336 293.43543015 39.04489136 309.43560791 C39.2213332 310.96155116 39.39866069 312.48739229 39.57693481 314.01312256 C39.82116653 316.1073796 40.06157856 318.20203836 40.30078125 320.296875 C40.43653564 321.47604492 40.57229004 322.65521484 40.7121582 323.87011719 C41 327 41 327 41 332 C13.94 332 -13.12 332 -41 332 C-39.87525106 317.37826378 -39.87525106 317.37826378 -39.04785156 311.04638672 C-38.95809649 310.35187408 -38.86834143 309.65736145 -38.77586651 308.94180298 C-38.4838339 306.68735619 -38.18719896 304.43354091 -37.890625 302.1796875 C-37.68116432 300.56719548 -37.47207174 298.95465561 -37.26332092 297.34207153 C-36.82281569 293.94251458 -36.38059582 290.54318759 -35.93692017 287.14404297 C-34.78069018 278.28212583 -33.63718635 269.41856493 -32.49609375 260.5546875 C-32.38415869 259.68565544 -32.27222363 258.81662338 -32.15689659 257.92125702 C-30.4459599 244.62473575 -28.81257667 231.32214137 -27.3125 218 C-25.41251246 201.14531271 -23.25057107 184.33057186 -21.04217529 167.51367188 C-18.93953919 151.48498703 -16.96503298 135.44882244 -15.140625 119.38623047 C-13.45925559 104.61064371 -11.57549676 89.86770884 -9.61849976 75.12628174 C-7.4500413 58.77155359 -5.48260669 42.39944176 -3.6484375 26.00390625 C-2.66645823 17.28785495 -1.5914145 8.6313639 0 0 Z " fill="#494949" transform="translate(345,191)"/>
<path d="M0 0 C0.33 0 0.66 0 1 0 C1.33 2.97 1.66 5.94 2 9 C1.01 9.33 0.02 9.66 -1 10 C-0.67 6.7 -0.34 3.4 0 0 Z " fill="#6B6B6B" transform="translate(345,191)"/>
</svg>
