<svg id="visual" viewBox="0 0 900 600" width="900" height="600" xmlns="http://www.w3.org/2000/svg" xmlns:xlink="http://www.w3.org/1999/xlink" version="1.1"><rect x="0" y="0" width="900" height="600" fill="#000000"></rect><path d="M460 600L425 600L425 500L382 500L382 400L446 400L446 300L494 300L494 200L472 200L472 100L437 100L437 0L900 0L900 100L900 100L900 200L900 200L900 300L900 300L900 400L900 400L900 500L900 500L900 600L900 600Z" fill="#6b6b6b"></path><path d="M681 600L698 600L698 500L595 500L595 400L658 400L658 300L671 300L671 200L610 200L610 100L697 100L697 0L900 0L900 100L900 100L900 200L900 200L900 300L900 300L900 400L900 400L900 500L900 500L900 600L900 600Z" fill="#b2b2b2"></path><path d="M805 600L741 600L741 500L790 500L790 400L798 400L798 300L695 300L695 200L690 200L690 100L725 100L725 0L900 0L900 100L900 100L900 200L900 200L900 300L900 300L900 400L900 400L900 500L900 500L900 600L900 600Z" fill="#ffffff"></path></svg>